<mxfile host="app.diagrams.net" modified="2020-11-10T03:47:21.560Z" agent="5.0 (Windows NT 10.0; Win64; x64) AppleWebKit/537.36 (KHTML, like Gecko) Chrome/86.0.4240.183 Safari/537.36" etag="uiwxEMnfNyJsKUc0WePy" version="13.9.2" type="github">
  <diagram id="h0yh4uh9Ou2qqzZrw4VW" name="Page-1">
    <mxGraphModel dx="1038" dy="548" grid="1" gridSize="10" guides="1" tooltips="1" connect="1" arrows="1" fold="1" page="1" pageScale="1" pageWidth="850" pageHeight="1100" math="0" shadow="0">
      <root>
        <mxCell id="0" />
        <mxCell id="1" parent="0" />
        <mxCell id="fXs1r2CifXFu1rM4M8Fj-4" value="" style="edgeStyle=orthogonalEdgeStyle;rounded=0;orthogonalLoop=1;jettySize=auto;html=1;" parent="1" source="fXs1r2CifXFu1rM4M8Fj-1" target="fXs1r2CifXFu1rM4M8Fj-2" edge="1">
          <mxGeometry relative="1" as="geometry" />
        </mxCell>
        <mxCell id="fXs1r2CifXFu1rM4M8Fj-1" value="" style="ellipse;whiteSpace=wrap;html=1;aspect=fixed;fillColor=#000000;" parent="1" vertex="1">
          <mxGeometry x="220" y="40" width="40" height="40" as="geometry" />
        </mxCell>
        <mxCell id="fXs1r2CifXFu1rM4M8Fj-5" value="" style="edgeStyle=orthogonalEdgeStyle;rounded=0;orthogonalLoop=1;jettySize=auto;html=1;entryX=0.5;entryY=0;entryDx=0;entryDy=0;" parent="1" source="fXs1r2CifXFu1rM4M8Fj-2" target="U1gIK-Ml1kVYt0ZC6_mx-11" edge="1">
          <mxGeometry relative="1" as="geometry" />
        </mxCell>
        <mxCell id="fXs1r2CifXFu1rM4M8Fj-2" value="Place order to close" style="rounded=1;whiteSpace=wrap;html=1;fillColor=#FFFFFF;" parent="1" vertex="1">
          <mxGeometry x="140" y="110" width="200" height="30" as="geometry" />
        </mxCell>
        <mxCell id="fXs1r2CifXFu1rM4M8Fj-21" value="No" style="edgeStyle=orthogonalEdgeStyle;rounded=0;orthogonalLoop=1;jettySize=auto;html=1;" parent="1" source="fXs1r2CifXFu1rM4M8Fj-3" target="fXs1r2CifXFu1rM4M8Fj-20" edge="1">
          <mxGeometry relative="1" as="geometry" />
        </mxCell>
        <mxCell id="fXs1r2CifXFu1rM4M8Fj-3" value="Valid?" style="rhombus;whiteSpace=wrap;html=1;fillColor=#FFFFFF;" parent="1" vertex="1">
          <mxGeometry x="210" y="250" width="60" height="60" as="geometry" />
        </mxCell>
        <mxCell id="fXs1r2CifXFu1rM4M8Fj-12" value="" style="edgeStyle=orthogonalEdgeStyle;rounded=0;orthogonalLoop=1;jettySize=auto;html=1;entryX=1;entryY=0.5;entryDx=0;entryDy=0;exitX=0.5;exitY=1;exitDx=0;exitDy=0;" parent="1" source="fXs1r2CifXFu1rM4M8Fj-8" target="fXs1r2CifXFu1rM4M8Fj-15" edge="1">
          <mxGeometry relative="1" as="geometry">
            <mxPoint x="580" y="570" as="targetPoint" />
          </mxGeometry>
        </mxCell>
        <mxCell id="fXs1r2CifXFu1rM4M8Fj-15" value="" style="ellipse;html=1;shape=endState;fillColor=#000000;strokeColor=#ff0000;" parent="1" vertex="1">
          <mxGeometry x="365" y="840" width="30" height="30" as="geometry" />
        </mxCell>
        <mxCell id="fXs1r2CifXFu1rM4M8Fj-23" style="edgeStyle=orthogonalEdgeStyle;rounded=0;orthogonalLoop=1;jettySize=auto;html=1;entryX=0;entryY=0.5;entryDx=0;entryDy=0;exitX=0.5;exitY=1;exitDx=0;exitDy=0;" parent="1" source="fXs1r2CifXFu1rM4M8Fj-20" target="fXs1r2CifXFu1rM4M8Fj-15" edge="1">
          <mxGeometry relative="1" as="geometry">
            <Array as="points">
              <mxPoint x="110" y="855" />
            </Array>
          </mxGeometry>
        </mxCell>
        <mxCell id="fXs1r2CifXFu1rM4M8Fj-20" value="Error" style="rounded=1;whiteSpace=wrap;html=1;fillColor=#FFFFFF;" parent="1" vertex="1">
          <mxGeometry x="60" y="380" width="100" height="30" as="geometry" />
        </mxCell>
        <mxCell id="i4_D4u_NBAQ-QaVN7W0C-22" value="Yes" style="edgeStyle=orthogonalEdgeStyle;rounded=0;orthogonalLoop=1;jettySize=auto;html=1;entryX=0;entryY=0.5;entryDx=0;entryDy=0;endArrow=classic;endFill=1;exitX=1;exitY=0.5;exitDx=0;exitDy=0;" parent="1" source="fXs1r2CifXFu1rM4M8Fj-3" target="U1gIK-Ml1kVYt0ZC6_mx-14" edge="1">
          <mxGeometry relative="1" as="geometry">
            <mxPoint x="340" y="280" as="targetPoint" />
          </mxGeometry>
        </mxCell>
        <mxCell id="fXs1r2CifXFu1rM4M8Fj-8" value="Record financial transaction" style="rounded=1;whiteSpace=wrap;html=1;fillColor=#FFFFFF;" parent="1" vertex="1">
          <mxGeometry x="480" y="770" width="200" height="30" as="geometry" />
        </mxCell>
        <mxCell id="OsMlclKe9sGLii8gvVtk-3" value="" style="edgeStyle=orthogonalEdgeStyle;rounded=0;orthogonalLoop=1;jettySize=auto;html=1;entryX=0.5;entryY=0;entryDx=0;entryDy=0;" parent="1" source="OsMlclKe9sGLii8gvVtk-1" target="U1gIK-Ml1kVYt0ZC6_mx-18" edge="1">
          <mxGeometry relative="1" as="geometry">
            <mxPoint x="580" y="280" as="targetPoint" />
          </mxGeometry>
        </mxCell>
        <mxCell id="OsMlclKe9sGLii8gvVtk-1" value="Submit order to broker" style="rounded=1;whiteSpace=wrap;html=1;fillColor=#FFFFFF;" parent="1" vertex="1">
          <mxGeometry x="480" y="265" width="200" height="30" as="geometry" />
        </mxCell>
        <mxCell id="U1gIK-Ml1kVYt0ZC6_mx-2" style="edgeStyle=orthogonalEdgeStyle;rounded=0;orthogonalLoop=1;jettySize=auto;html=1;entryX=0.5;entryY=0;entryDx=0;entryDy=0;" parent="1" source="U1gIK-Ml1kVYt0ZC6_mx-1" target="U1gIK-Ml1kVYt0ZC6_mx-3" edge="1">
          <mxGeometry relative="1" as="geometry" />
        </mxCell>
        <mxCell id="U1gIK-Ml1kVYt0ZC6_mx-1" value="Submit order to exchange" style="rounded=1;whiteSpace=wrap;html=1;fillColor=#FFFFFF;" parent="1" vertex="1">
          <mxGeometry x="480" y="470" width="200" height="30" as="geometry" />
        </mxCell>
        <mxCell id="U1gIK-Ml1kVYt0ZC6_mx-4" value="Yes" style="edgeStyle=orthogonalEdgeStyle;rounded=0;orthogonalLoop=1;jettySize=auto;html=1;entryX=0.5;entryY=0;entryDx=0;entryDy=0;" parent="1" source="U1gIK-Ml1kVYt0ZC6_mx-3" target="fXs1r2CifXFu1rM4M8Fj-8" edge="1">
          <mxGeometry relative="1" as="geometry" />
        </mxCell>
        <mxCell id="U1gIK-Ml1kVYt0ZC6_mx-5" value="No" style="edgeStyle=orthogonalEdgeStyle;rounded=0;orthogonalLoop=1;jettySize=auto;html=1;entryX=0;entryY=0.5;entryDx=0;entryDy=0;" parent="1" source="U1gIK-Ml1kVYt0ZC6_mx-3" target="U1gIK-Ml1kVYt0ZC6_mx-7" edge="1">
          <mxGeometry relative="1" as="geometry" />
        </mxCell>
        <mxCell id="U1gIK-Ml1kVYt0ZC6_mx-3" value="&lt;span&gt;Fulfillment Successful?&lt;/span&gt;" style="rhombus;whiteSpace=wrap;html=1;" parent="1" vertex="1">
          <mxGeometry x="535" y="590" width="90" height="90" as="geometry" />
        </mxCell>
        <mxCell id="U1gIK-Ml1kVYt0ZC6_mx-10" style="edgeStyle=orthogonalEdgeStyle;rounded=0;orthogonalLoop=1;jettySize=auto;html=1;entryX=0.5;entryY=1;entryDx=0;entryDy=0;exitX=0.5;exitY=1;exitDx=0;exitDy=0;" parent="1" source="U1gIK-Ml1kVYt0ZC6_mx-7" target="fXs1r2CifXFu1rM4M8Fj-15" edge="1">
          <mxGeometry relative="1" as="geometry" />
        </mxCell>
        <mxCell id="U1gIK-Ml1kVYt0ZC6_mx-7" value="Error" style="rounded=1;whiteSpace=wrap;html=1;fillColor=#FFFFFF;" parent="1" vertex="1">
          <mxGeometry x="680" y="620" width="100" height="30" as="geometry" />
        </mxCell>
        <mxCell id="U1gIK-Ml1kVYt0ZC6_mx-13" style="edgeStyle=orthogonalEdgeStyle;rounded=0;orthogonalLoop=1;jettySize=auto;html=1;entryX=0.5;entryY=0;entryDx=0;entryDy=0;exitX=0.5;exitY=1;exitDx=0;exitDy=0;" parent="1" source="U1gIK-Ml1kVYt0ZC6_mx-11" target="fXs1r2CifXFu1rM4M8Fj-3" edge="1">
          <mxGeometry relative="1" as="geometry">
            <Array as="points" />
          </mxGeometry>
        </mxCell>
        <mxCell id="U1gIK-Ml1kVYt0ZC6_mx-11" value="Determine trade financial impact" style="rounded=1;whiteSpace=wrap;html=1;fillColor=#FFFFFF;" parent="1" vertex="1">
          <mxGeometry x="140" y="170" width="200" height="30" as="geometry" />
        </mxCell>
        <mxCell id="U1gIK-Ml1kVYt0ZC6_mx-15" value="Change" style="edgeStyle=orthogonalEdgeStyle;rounded=0;orthogonalLoop=1;jettySize=auto;html=1;exitX=0.5;exitY=0;exitDx=0;exitDy=0;" parent="1" source="U1gIK-Ml1kVYt0ZC6_mx-14" edge="1">
          <mxGeometry relative="1" as="geometry">
            <mxPoint x="340" y="185" as="targetPoint" />
            <Array as="points">
              <mxPoint x="380" y="185" />
              <mxPoint x="340" y="185" />
            </Array>
          </mxGeometry>
        </mxCell>
        <mxCell id="U1gIK-Ml1kVYt0ZC6_mx-16" value="Confirm" style="edgeStyle=orthogonalEdgeStyle;rounded=0;orthogonalLoop=1;jettySize=auto;html=1;entryX=0;entryY=0.5;entryDx=0;entryDy=0;" parent="1" source="U1gIK-Ml1kVYt0ZC6_mx-14" target="OsMlclKe9sGLii8gvVtk-1" edge="1">
          <mxGeometry relative="1" as="geometry" />
        </mxCell>
        <mxCell id="U1gIK-Ml1kVYt0ZC6_mx-17" value="Cancel" style="edgeStyle=orthogonalEdgeStyle;rounded=0;orthogonalLoop=1;jettySize=auto;html=1;entryX=0.5;entryY=0;entryDx=0;entryDy=0;" parent="1" source="U1gIK-Ml1kVYt0ZC6_mx-14" target="fXs1r2CifXFu1rM4M8Fj-15" edge="1">
          <mxGeometry relative="1" as="geometry" />
        </mxCell>
        <mxCell id="U1gIK-Ml1kVYt0ZC6_mx-14" value="" style="rounded=1;whiteSpace=wrap;html=1;fillColor=#000000;" parent="1" vertex="1">
          <mxGeometry x="370" y="230" width="20" height="100" as="geometry" />
        </mxCell>
        <mxCell id="U1gIK-Ml1kVYt0ZC6_mx-19" value="No" style="edgeStyle=orthogonalEdgeStyle;rounded=0;orthogonalLoop=1;jettySize=auto;html=1;entryX=0.5;entryY=0;entryDx=0;entryDy=0;" parent="1" source="U1gIK-Ml1kVYt0ZC6_mx-18" target="U1gIK-Ml1kVYt0ZC6_mx-1" edge="1">
          <mxGeometry relative="1" as="geometry" />
        </mxCell>
        <mxCell id="U1gIK-Ml1kVYt0ZC6_mx-20" value="Yes" style="edgeStyle=orthogonalEdgeStyle;rounded=0;orthogonalLoop=1;jettySize=auto;html=1;entryX=0;entryY=0.5;entryDx=0;entryDy=0;" parent="1" source="U1gIK-Ml1kVYt0ZC6_mx-18" target="fXs1r2CifXFu1rM4M8Fj-8" edge="1">
          <mxGeometry relative="1" as="geometry">
            <Array as="points">
              <mxPoint x="460" y="375" />
              <mxPoint x="460" y="785" />
            </Array>
          </mxGeometry>
        </mxCell>
        <mxCell id="U1gIK-Ml1kVYt0ZC6_mx-18" value="&lt;span&gt;Can broker fulfill?&lt;/span&gt;" style="rhombus;whiteSpace=wrap;html=1;" parent="1" vertex="1">
          <mxGeometry x="535" y="330" width="90" height="90" as="geometry" />
        </mxCell>
      </root>
    </mxGraphModel>
  </diagram>
</mxfile>
